<?xml version="1.0" encoding="UTF-8"?>
<svg xmlns="http://www.w3.org/2000/svg" xmlns:xlink="http://www.w3.org/1999/xlink" width="48px" height="50px" viewBox="0 0 48 49" version="1.1">
<g id="surface1">
<path style=" stroke:none;fill-rule:nonzero;fill:rgb(100%,17.647059%,12.54902%);fill-opacity:1;" d="M 47.886719 11.179688 C 47.90625 11.246094 47.914062 11.3125 47.914062 11.378906 L 47.914062 21.832031 C 47.914062 22.105469 47.765625 22.359375 47.527344 22.492188 L 38.640625 27.546875 L 38.640625 37.558594 C 38.640625 37.832031 38.492188 38.082031 38.253906 38.21875 L 19.703125 48.761719 C 19.664062 48.785156 19.617188 48.800781 19.570312 48.816406 C 19.550781 48.824219 19.535156 48.832031 19.515625 48.839844 C 19.386719 48.871094 19.25 48.871094 19.121094 48.839844 C 19.101562 48.832031 19.082031 48.820312 19.0625 48.8125 C 19.019531 48.796875 18.972656 48.785156 18.933594 48.761719 L 0.386719 38.21875 C 0.148438 38.082031 0 37.832031 0 37.558594 L 0 6.195312 C 0 6.128906 0.0078125 6.0625 0.0273438 5.996094 C 0.03125 5.976562 0.046875 5.953125 0.0546875 5.933594 C 0.0703125 5.894531 0.0820312 5.851562 0.101562 5.816406 C 0.117188 5.789062 0.140625 5.769531 0.15625 5.746094 C 0.179688 5.714844 0.199219 5.683594 0.226562 5.660156 C 0.246094 5.636719 0.277344 5.621094 0.300781 5.601562 C 0.328125 5.578125 0.355469 5.554688 0.386719 5.535156 L 9.660156 0.265625 C 9.898438 0.128906 10.191406 0.128906 10.433594 0.265625 L 19.707031 5.535156 C 19.738281 5.554688 19.765625 5.578125 19.792969 5.601562 C 19.816406 5.621094 19.84375 5.636719 19.867188 5.65625 C 19.894531 5.683594 19.914062 5.714844 19.9375 5.746094 C 19.953125 5.769531 19.976562 5.789062 19.988281 5.816406 C 20.011719 5.851562 20.023438 5.894531 20.039062 5.933594 C 20.046875 5.953125 20.0625 5.976562 20.066406 5.996094 C 20.085938 6.0625 20.09375 6.128906 20.09375 6.195312 L 20.09375 25.785156 L 27.820312 21.390625 L 27.820312 11.378906 C 27.820312 11.3125 27.832031 11.242188 27.847656 11.179688 C 27.855469 11.15625 27.867188 11.136719 27.875 11.113281 C 27.890625 11.074219 27.902344 11.035156 27.925781 10.996094 C 27.941406 10.972656 27.960938 10.953125 27.976562 10.929688 C 28 10.898438 28.019531 10.867188 28.046875 10.839844 C 28.070312 10.820312 28.097656 10.800781 28.121094 10.785156 C 28.152344 10.761719 28.175781 10.734375 28.207031 10.71875 L 37.480469 5.445312 C 37.722656 5.308594 38.015625 5.308594 38.253906 5.445312 L 47.527344 10.71875 C 47.558594 10.738281 47.585938 10.761719 47.613281 10.78125 C 47.636719 10.800781 47.667969 10.820312 47.6875 10.839844 C 47.714844 10.867188 47.734375 10.898438 47.757812 10.929688 C 47.777344 10.953125 47.796875 10.972656 47.808594 10.996094 C 47.832031 11.035156 47.84375 11.074219 47.859375 11.113281 C 47.871094 11.136719 47.882812 11.15625 47.886719 11.179688 Z M 46.367188 21.390625 L 46.367188 12.699219 L 43.125 14.542969 L 38.640625 17.089844 L 38.640625 25.785156 L 46.371094 21.390625 Z M 37.09375 37.117188 L 37.09375 28.417969 L 32.683594 30.90625 L 20.09375 38 L 20.09375 46.78125 Z M 1.546875 7.515625 L 1.546875 37.117188 L 18.546875 46.78125 L 18.546875 38 L 9.664062 33.039062 L 9.664062 33.035156 L 9.660156 33.035156 C 9.628906 33.019531 9.601562 32.992188 9.574219 32.972656 C 9.550781 32.953125 9.523438 32.9375 9.503906 32.917969 L 9.5 32.914062 C 9.476562 32.890625 9.457031 32.859375 9.4375 32.835938 C 9.417969 32.808594 9.394531 32.785156 9.378906 32.761719 L 9.378906 32.757812 C 9.359375 32.726562 9.347656 32.695312 9.335938 32.660156 C 9.324219 32.632812 9.308594 32.605469 9.300781 32.574219 C 9.289062 32.539062 9.289062 32.5 9.285156 32.464844 C 9.28125 32.433594 9.273438 32.40625 9.273438 32.378906 L 9.273438 11.910156 L 4.792969 9.359375 Z M 10.046875 1.804688 L 2.320312 6.195312 L 10.046875 10.589844 L 17.769531 6.195312 Z M 14.066406 29.210938 L 18.546875 26.664062 L 18.546875 7.515625 L 15.300781 9.359375 L 10.820312 11.910156 L 10.820312 31.054688 Z M 37.867188 6.988281 L 30.144531 11.378906 L 37.867188 15.769531 L 45.59375 11.378906 Z M 37.09375 17.089844 L 32.613281 14.542969 L 29.367188 12.699219 L 29.367188 21.390625 L 33.847656 23.9375 L 37.09375 25.785156 Z M 19.320312 36.679688 L 30.648438 30.292969 L 36.316406 27.101562 L 28.59375 22.714844 L 19.707031 27.765625 L 11.605469 32.371094 Z M 19.320312 36.679688 "/>
</g>
</svg>
