<?xml version="1.0" encoding="UTF-8"?>
<svg xmlns="http://www.w3.org/2000/svg" xmlns:xlink="http://www.w3.org/1999/xlink" width="92px" height="48px" viewBox="0 0 91 48" version="1.1">
<g id="surface1">
<path style=" stroke:none;fill-rule:evenodd;fill:rgb(53.72549%,57.647059%,74.509804%);fill-opacity:1;" d="M 91 23.859375 C 91 10.683594 70.628906 0 45.5 0 C 20.371094 0 0 10.683594 0 23.859375 C 0 37.039062 20.371094 47.71875 45.5 47.71875 C 70.628906 47.71875 91 37.039062 91 23.859375 Z M 91 23.859375 "/>
<path style=" stroke:none;fill-rule:evenodd;fill:rgb(13.72549%,14.509804%,19.215686%);fill-opacity:1;" d="M 12.777344 37.988281 L 17.765625 12.558594 L 29.292969 12.558594 C 34.28125 12.871094 36.773438 15.382812 36.773438 19.777344 C 36.773438 27.3125 30.851562 31.707031 25.554688 31.394531 L 19.945312 31.394531 L 18.699219 37.988281 Z M 21.191406 26.6875 L 22.75 17.265625 L 26.800781 17.265625 C 28.984375 17.265625 30.539062 18.207031 30.539062 20.09375 C 30.230469 25.429688 27.734375 26.371094 24.929688 26.6875 Z M 35.613281 31.394531 L 40.601562 5.964844 L 46.523438 5.964844 L 45.277344 12.558594 L 50.886719 12.558594 C 55.871094 12.871094 57.742188 15.382812 57.117188 18.523438 L 54.9375 31.394531 L 48.703125 31.394531 L 50.886719 19.777344 C 51.195312 18.207031 51.195312 17.265625 49.015625 17.265625 L 44.339844 17.265625 L 41.535156 31.394531 Z M 54.539062 37.988281 L 59.523438 12.558594 L 71.054688 12.558594 C 76.042969 12.871094 78.535156 15.382812 78.535156 19.777344 C 78.535156 27.3125 72.613281 31.707031 67.316406 31.394531 L 61.707031 31.394531 L 60.457031 37.988281 Z M 62.953125 26.6875 L 64.511719 17.265625 L 68.5625 17.265625 C 70.742188 17.265625 72.300781 18.207031 72.300781 20.09375 C 71.988281 25.429688 69.496094 26.371094 66.691406 26.6875 Z M 62.953125 26.6875 "/>
</g>
</svg>
